<svg width="220" height="56" viewBox="0 0 220 56" fill="none" xmlns="http://www.w3.org/2000/svg">
  <defs>
    <linearGradient id="dust" x1="110" y1="0" x2="110" y2="56" gradientUnits="userSpaceOnUse">
      <stop offset="0" stop-color="#D3C1AE" stop-opacity="0.03"/>
      <stop offset="0.68" stop-color="#D3C1AE" stop-opacity="0.16"/>
      <stop offset="1" stop-color="#D3C1AE" stop-opacity="0.06"/>
    </linearGradient>
  </defs>

  <rect width="220" height="56" fill="url(#dust)"/>

  <g fill="#715E4E">
    <ellipse cx="12" cy="34" rx="10" ry="4.3"/>
    <ellipse cx="44" cy="31.5" rx="8.4" ry="4.1"/>
    <ellipse cx="74" cy="35" rx="9.2" ry="4.4"/>
    <ellipse cx="104" cy="32" rx="8.6" ry="4.2"/>
    <ellipse cx="134" cy="35" rx="9.4" ry="4.5"/>
    <ellipse cx="164" cy="31.5" rx="8.4" ry="4.1"/>
    <ellipse cx="194" cy="34" rx="9" ry="4.3"/>
  </g>

  <g fill="#B49A81" fill-opacity="0.62">
    <path d="M4 41L10 36L16 41Z"/>
    <path d="M32 40L38 35L44 40Z"/>
    <path d="M62 41L68 36L74 41Z"/>
    <path d="M92 40L98 35L104 40Z"/>
    <path d="M122 41L128 36L134 41Z"/>
    <path d="M152 40L158 35L164 40Z"/>
    <path d="M182 41L188 36L194 41Z"/>
  </g>
</svg>
