<svg width="240" height="56" viewBox="0 0 240 56" fill="none" xmlns="http://www.w3.org/2000/svg">
  <defs>
    <linearGradient id="fog" x1="120" y1="0" x2="120" y2="56" gradientUnits="userSpaceOnUse">
      <stop offset="0" stop-color="#DBF0CE" stop-opacity="0.03"/>
      <stop offset="0.68" stop-color="#DBF0CE" stop-opacity="0.2"/>
      <stop offset="1" stop-color="#DBF0CE" stop-opacity="0.08"/>
    </linearGradient>
  </defs>

  <rect width="240" height="56" fill="url(#fog)"/>

  <g>
    <rect x="12" y="29" width="4" height="12" rx="2" fill="#4A5E42"/>
    <ellipse cx="14" cy="24" rx="10" ry="7" fill="#6D905F"/>
    <ellipse cx="8" cy="25.8" rx="5.5" ry="4.2" fill="#5B7E50"/>
    <ellipse cx="20" cy="25.8" rx="5.5" ry="4.2" fill="#5B7E50"/>

    <rect x="64" y="28" width="4" height="13" rx="2" fill="#4A5E42"/>
    <ellipse cx="66" cy="23.2" rx="10.5" ry="7.4" fill="#6E9161"/>
    <ellipse cx="60" cy="25" rx="5.6" ry="4.2" fill="#5C8052"/>
    <ellipse cx="72.2" cy="25.1" rx="5.6" ry="4.2" fill="#5C8052"/>

    <rect x="116" y="29" width="4" height="12" rx="2" fill="#4A5E42"/>
    <ellipse cx="118" cy="24" rx="10" ry="7" fill="#6D905F"/>
    <ellipse cx="112" cy="25.8" rx="5.5" ry="4.2" fill="#5B7E50"/>
    <ellipse cx="124" cy="25.8" rx="5.5" ry="4.2" fill="#5B7E50"/>

    <rect x="168" y="28" width="4" height="13" rx="2" fill="#4A5E42"/>
    <ellipse cx="170" cy="23.2" rx="10.5" ry="7.4" fill="#6E9161"/>
    <ellipse cx="164" cy="25" rx="5.6" ry="4.2" fill="#5C8052"/>
    <ellipse cx="176.2" cy="25.1" rx="5.6" ry="4.2" fill="#5C8052"/>
  </g>

  <g stroke="#C6E1B8" stroke-opacity="0.5" stroke-width="1.2" stroke-linecap="round">
    <path d="M4 43L4 38"/>
    <path d="M11 44L11 39"/>
    <path d="M22 44L22 39"/>
    <path d="M32 43L32 38"/>
    <path d="M43 44L43 39"/>
    <path d="M54 43L54 38"/>
    <path d="M76 44L76 39"/>
    <path d="M88 43L88 38"/>
    <path d="M100 44L100 39"/>
    <path d="M126 43L126 38"/>
    <path d="M138 44L138 39"/>
    <path d="M150 43L150 38"/>
    <path d="M176 44L176 39"/>
    <path d="M188 43L188 38"/>
    <path d="M200 44L200 39"/>
    <path d="M230 43L230 38"/>
  </g>
</svg>
