<svg width="1920" height="1080" viewBox="0 0 1920 1080" fill="none" xmlns="http://www.w3.org/2000/svg">
  <defs>
    <linearGradient id="sky" x1="960" y1="0" x2="960" y2="620" gradientUnits="userSpaceOnUse">
      <stop offset="0" stop-color="#8FB8A2"/>
      <stop offset="0.5" stop-color="#7FA893"/>
      <stop offset="1" stop-color="#6E977F"/>
    </linearGradient>
    <radialGradient id="sunGlow" cx="0" cy="0" r="1" gradientUnits="userSpaceOnUse" gradientTransform="translate(1490 188) scale(220 150)">
      <stop stop-color="#F8F4D5" stop-opacity="0.6"/>
      <stop offset="1" stop-color="#F8F4D5" stop-opacity="0"/>
    </radialGradient>
    <linearGradient id="hillFar" x1="960" y1="520" x2="960" y2="760" gradientUnits="userSpaceOnUse">
      <stop offset="0" stop-color="#6F9C72"/>
      <stop offset="1" stop-color="#5D865E"/>
    </linearGradient>
    <linearGradient id="hillMid" x1="960" y1="600" x2="960" y2="820" gradientUnits="userSpaceOnUse">
      <stop offset="0" stop-color="#628866"/>
      <stop offset="1" stop-color="#507353"/>
    </linearGradient>
    <linearGradient id="field" x1="960" y1="700" x2="960" y2="1080" gradientUnits="userSpaceOnUse">
      <stop offset="0" stop-color="#4E744E"/>
      <stop offset="0.56" stop-color="#3F6540"/>
      <stop offset="1" stop-color="#345634"/>
    </linearGradient>
    <linearGradient id="road" x1="960" y1="720" x2="960" y2="1080" gradientUnits="userSpaceOnUse">
      <stop offset="0" stop-color="#8D7A5A" stop-opacity="0.48"/>
      <stop offset="1" stop-color="#6E5E44" stop-opacity="0.6"/>
    </linearGradient>
    <filter id="grain" x="-20%" y="-20%" width="140%" height="140%">
      <feTurbulence type="fractalNoise" baseFrequency="0.9" numOctaves="2" seed="7" result="noise"/>
      <feColorMatrix in="noise" type="saturate" values="0"/>
      <feComponentTransfer>
        <feFuncA type="table" tableValues="0 0.04"/>
      </feComponentTransfer>
    </filter>

    <symbol id="tree" viewBox="0 0 36 54">
      <rect x="15.5" y="30" width="5" height="18" rx="2.5" fill="#4A5A3F"/>
      <circle cx="18" cy="24" r="14" fill="#58754C"/>
      <circle cx="10.5" cy="26" r="8" fill="#5F7F53"/>
      <circle cx="25.5" cy="27" r="8" fill="#5A784F"/>
    </symbol>
  </defs>

  <rect width="1920" height="620" fill="url(#sky)"/>
  <rect width="1920" height="620" fill="url(#sunGlow)"/>

  <g opacity="0.32" fill="#CEE2D3">
    <ellipse cx="320" cy="178" rx="120" ry="34"/>
    <ellipse cx="390" cy="186" rx="70" ry="22"/>
    <ellipse cx="990" cy="164" rx="138" ry="38"/>
    <ellipse cx="1088" cy="172" rx="82" ry="24"/>
    <ellipse cx="1498" cy="238" rx="132" ry="36"/>
    <ellipse cx="1586" cy="248" rx="80" ry="24"/>
  </g>

  <path d="M0 570C260 526 450 586 680 558C900 530 1110 592 1350 560C1560 532 1740 580 1920 552V710H0V570Z" fill="url(#hillFar)"/>
  <path d="M0 642C260 606 488 676 736 642C972 610 1186 688 1422 652C1622 624 1780 668 1920 654V790H0V642Z" fill="url(#hillMid)"/>

  <g opacity="0.76">
    <use href="#tree" x="84" y="522" width="34" height="52"/>
    <use href="#tree" x="168" y="528" width="32" height="50"/>
    <use href="#tree" x="248" y="520" width="35" height="53"/>
    <use href="#tree" x="352" y="526" width="33" height="51"/>
    <use href="#tree" x="458" y="518" width="36" height="54"/>
    <use href="#tree" x="572" y="528" width="32" height="50"/>
    <use href="#tree" x="684" y="520" width="35" height="53"/>
    <use href="#tree" x="806" y="526" width="33" height="51"/>
    <use href="#tree" x="918" y="518" width="36" height="54"/>
    <use href="#tree" x="1038" y="528" width="32" height="50"/>
    <use href="#tree" x="1146" y="520" width="35" height="53"/>
    <use href="#tree" x="1264" y="526" width="33" height="51"/>
    <use href="#tree" x="1382" y="518" width="36" height="54"/>
    <use href="#tree" x="1500" y="528" width="32" height="50"/>
    <use href="#tree" x="1612" y="520" width="35" height="53"/>
    <use href="#tree" x="1728" y="526" width="33" height="51"/>
    <use href="#tree" x="1828" y="518" width="36" height="54"/>
  </g>

  <rect y="690" width="1920" height="390" fill="url(#field)"/>

  <path d="M0 820C250 780 500 884 740 846C964 812 1188 888 1412 852C1628 820 1780 870 1920 860V1080H0V820Z" fill="url(#road)"/>
  <path d="M0 864C240 826 488 914 730 878C958 844 1196 918 1430 884C1638 854 1800 900 1920 892" stroke="#DCCAA2" stroke-opacity="0.26" stroke-width="2"/>
  <path d="M0 912C246 878 492 950 734 920C960 892 1198 956 1432 924C1638 900 1800 938 1920 930" stroke="#DCCAA2" stroke-opacity="0.16" stroke-width="2"/>

  <g stroke="#7FA078" stroke-opacity="0.28" stroke-width="2">
    <path d="M98 1080L276 802"/>
    <path d="M292 1080L438 798"/>
    <path d="M510 1080L624 794"/>
    <path d="M724 1080L810 792"/>
    <path d="M938 1080L992 790"/>
    <path d="M1148 1080L1170 788"/>
    <path d="M1364 1080L1348 786"/>
    <path d="M1578 1080L1530 790"/>
    <path d="M1788 1080L1706 798"/>
  </g>

  <g fill="#B8D7A8" fill-opacity="0.24">
    <circle cx="212" cy="936" r="4.5"/>
    <circle cx="476" cy="980" r="3.8"/>
    <circle cx="728" cy="952" r="4.2"/>
    <circle cx="1068" cy="986" r="4.1"/>
    <circle cx="1324" cy="954" r="4.4"/>
    <circle cx="1580" cy="994" r="3.9"/>
    <circle cx="1782" cy="960" r="4.2"/>
  </g>

  <rect width="1920" height="1080" fill="#FFFFFF" filter="url(#grain)"/>
</svg>
