<svg width="1920" height="1080" viewBox="0 0 1920 1080" fill="none" xmlns="http://www.w3.org/2000/svg">
  <defs>
    <linearGradient id="sky" x1="960" y1="0" x2="960" y2="620" gradientUnits="userSpaceOnUse">
      <stop offset="0" stop-color="#66717D"/>
      <stop offset="0.52" stop-color="#57616B"/>
      <stop offset="1" stop-color="#4A535C"/>
    </linearGradient>
    <radialGradient id="mistGlow" cx="0" cy="0" r="1" gradientUnits="userSpaceOnUse" gradientTransform="translate(920 318) scale(900 260)">
      <stop stop-color="#C6CCD2" stop-opacity="0.2"/>
      <stop offset="1" stop-color="#C6CCD2" stop-opacity="0"/>
    </radialGradient>
    <linearGradient id="ridgeFar" x1="960" y1="560" x2="960" y2="760" gradientUnits="userSpaceOnUse">
      <stop offset="0" stop-color="#6A5D52"/>
      <stop offset="1" stop-color="#5A4F45"/>
    </linearGradient>
    <linearGradient id="ridgeMid" x1="960" y1="640" x2="960" y2="840" gradientUnits="userSpaceOnUse">
      <stop offset="0" stop-color="#5A4D42"/>
      <stop offset="1" stop-color="#4B4036"/>
    </linearGradient>
    <linearGradient id="mudGround" x1="960" y1="700" x2="960" y2="1080" gradientUnits="userSpaceOnUse">
      <stop offset="0" stop-color="#4C3E33"/>
      <stop offset="0.58" stop-color="#3F332A"/>
      <stop offset="1" stop-color="#332922"/>
    </linearGradient>
    <linearGradient id="mudStream" x1="960" y1="760" x2="960" y2="1080" gradientUnits="userSpaceOnUse">
      <stop offset="0" stop-color="#8B755D" stop-opacity="0.42"/>
      <stop offset="1" stop-color="#685641" stop-opacity="0.54"/>
    </linearGradient>
    <filter id="grain" x="-20%" y="-20%" width="140%" height="140%">
      <feTurbulence type="fractalNoise" baseFrequency="0.85" numOctaves="2" seed="11" result="noise"/>
      <feColorMatrix in="noise" type="saturate" values="0"/>
      <feComponentTransfer>
        <feFuncA type="table" tableValues="0 0.05"/>
      </feComponentTransfer>
    </filter>

    <symbol id="rock" viewBox="0 0 44 28">
      <path d="M3 20L10 8L23 4L37 9L41 18L34 24L20 26L8 24Z" fill="#877260"/>
      <path d="M11 12L20 8L30 10L35 16L28 20L17 20L10 17Z" fill="#9A846F" fill-opacity="0.62"/>
    </symbol>
  </defs>

  <rect width="1920" height="620" fill="url(#sky)"/>
  <rect width="1920" height="620" fill="url(#mistGlow)"/>

  <g opacity="0.26" fill="#B6BDC5">
    <ellipse cx="260" cy="210" rx="140" ry="42"/>
    <ellipse cx="338" cy="220" rx="82" ry="24"/>
    <ellipse cx="884" cy="172" rx="180" ry="52"/>
    <ellipse cx="1008" cy="184" rx="104" ry="30"/>
    <ellipse cx="1548" cy="242" rx="158" ry="46"/>
    <ellipse cx="1664" cy="250" rx="92" ry="26"/>
  </g>

  <path d="M0 590C248 550 490 616 742 584C986 552 1208 622 1458 590C1666 562 1808 608 1920 594V742H0V590Z" fill="url(#ridgeFar)"/>
  <path d="M0 652C250 616 498 690 746 654C990 622 1220 700 1462 664C1668 634 1820 678 1920 666V806H0V652Z" fill="url(#ridgeMid)"/>

  <path d="M0 1080V772L172 650L338 770L506 628L672 784L844 610L1018 776L1188 632L1352 792L1522 614L1692 782L1854 648L1920 694V1080H0Z" fill="#493E34"/>
  <path d="M0 772L172 650L338 770L506 628L672 784L844 610L1018 776L1188 632L1352 792L1522 614L1692 782L1854 648L1920 694" stroke="#AD967E" stroke-opacity="0.34" stroke-width="3"/>

  <rect y="712" width="1920" height="368" fill="url(#mudGround)"/>

  <path d="M0 840C254 802 504 900 746 864C978 830 1220 906 1458 872C1660 842 1808 892 1920 882V1080H0V840Z" fill="url(#mudStream)"/>
  <path d="M0 886C248 852 494 930 736 896C968 864 1210 936 1448 904C1658 876 1808 916 1920 910" stroke="#C1A687" stroke-opacity="0.22" stroke-width="2"/>

  <g opacity="0.74">
    <use href="#rock" x="126" y="818" width="42" height="26"/>
    <use href="#rock" x="266" y="856" width="46" height="28"/>
    <use href="#rock" x="430" y="828" width="48" height="30"/>
    <use href="#rock" x="622" y="872" width="44" height="28"/>
    <use href="#rock" x="790" y="834" width="46" height="28"/>
    <use href="#rock" x="978" y="874" width="48" height="30"/>
    <use href="#rock" x="1154" y="838" width="46" height="28"/>
    <use href="#rock" x="1332" y="876" width="50" height="30"/>
    <use href="#rock" x="1516" y="842" width="46" height="28"/>
    <use href="#rock" x="1712" y="878" width="50" height="30"/>
  </g>

  <g fill="#5D4E41" fill-opacity="0.46">
    <ellipse cx="190" cy="936" rx="120" ry="28"/>
    <ellipse cx="546" cy="974" rx="152" ry="34"/>
    <ellipse cx="936" cy="930" rx="140" ry="30"/>
    <ellipse cx="1320" cy="978" rx="156" ry="36"/>
    <ellipse cx="1708" cy="944" rx="132" ry="30"/>
  </g>

  <g stroke="#8E7863" stroke-opacity="0.24" stroke-width="2">
    <path d="M84 1080L264 814"/>
    <path d="M284 1080L434 810"/>
    <path d="M502 1080L622 804"/>
    <path d="M724 1080L812 802"/>
    <path d="M940 1080L996 800"/>
    <path d="M1158 1080L1178 798"/>
    <path d="M1372 1080L1358 800"/>
    <path d="M1588 1080L1544 808"/>
    <path d="M1800 1080L1724 816"/>
  </g>

  <rect width="1920" height="1080" fill="#FFFFFF" filter="url(#grain)"/>
</svg>
